# Blender v2.69 (sub 0) OBJ File: ''
# www.blender.org
o Plane
v -1.000000 0.000000 0.000000
v 1.000000 0.000000 0.000000
v -1.000000 2.000000 0.000000
v 1.000000 2.000000 0.000000
v -0.995340 -0.003135 -0.007203
v 1.004660 -0.003135 -0.007203
v -0.995340 1.996865 -0.007202
v 1.004660 1.996865 -0.007202
vt 0.000000 0.001555
vt 0.998132 0.001555
vt 0.000000 1.000000
vt 0.998132 1.000000
vt 0.002879 0.000000
vt 0.002879 0.997435
vt 1.000000 0.000000
vt 1.000000 0.997435
vn 0.000000 -0.000000 1.000000
vn 0.000000 0.000000 -1.000000
s off
f 1/1/1 2/2/1 3/3/1
f 2/2/1 4/4/1 3/3/1
f 5/5/2 7/6/2 6/7/2
f 6/7/2 7/6/2 8/8/2
