# Blender v2.69 (sub 0) OBJ File: ''
# www.blender.org
o Cube.003
v 0.250000 0.250000 -0.000946
v -0.250000 -0.250000 -0.000946
v 0.250000 -0.250000 -0.000946
v -0.250000 0.250000 -0.000946
v 0.247948 0.253205 -0.001379
v -0.252052 -0.246795 -0.001379
v 0.247948 -0.246795 -0.001379
v -0.252052 0.253205 -0.001379
vt 1.000000 0.993760
vt 0.003893 0.000000
vt 1.000000 0.000000
vt 0.003893 0.993760
vt 0.995831 1.000000
vt 0.995831 0.006516
vt 0.000000 0.006516
vt 0.000000 1.000000
vn 0.000000 -0.000000 1.000000
vn 0.000000 0.000000 -1.000000
s off
f 1/1/1 2/2/1 3/3/1
f 2/2/1 1/1/1 4/4/1
f 5/5/2 7/6/2 6/7/2
f 6/7/2 8/8/2 5/5/2
